<svg width="16" height="17" viewBox="0 0 16 17" fill="none" xmlns="http://www.w3.org/2000/svg">
<path d="M5.66667 1.24712H1.7778C1.34825 1.24712 1.00003 1.59534 1.00003 2.02489V5.91376C1.00003 6.34331 1.34825 6.69153 1.7778 6.69153H5.66667C6.09622 6.69153 6.44445 6.34331 6.44445 5.91376V2.02489C6.44445 1.59534 6.09622 1.24712 5.66667 1.24712Z" stroke="black" stroke-width="1.55555" stroke-linecap="round" stroke-linejoin="round"/>
<path d="M14.2223 1.24716H10.3334C9.90389 1.24716 9.55566 1.59538 9.55566 2.02494V5.9138C9.55566 6.34336 9.90389 6.69158 10.3334 6.69158H14.2223C14.6519 6.69158 15.0001 6.34336 15.0001 5.9138V2.02494C15.0001 1.59538 14.6519 1.24716 14.2223 1.24716Z" stroke="black" stroke-width="1.55555" stroke-linecap="round" stroke-linejoin="round"/>
<path d="M14.2223 9.80273H10.3334C9.90389 9.80273 9.55566 10.151 9.55566 10.5805V14.4694C9.55566 14.8989 9.90389 15.2471 10.3334 15.2471H14.2223C14.6519 15.2471 15.0001 14.8989 15.0001 14.4694V10.5805C15.0001 10.151 14.6519 9.80273 14.2223 9.80273Z" stroke="black" stroke-width="1.55555" stroke-linecap="round" stroke-linejoin="round"/>
<path d="M5.6667 9.80273H1.77783C1.34828 9.80273 1.00006 10.151 1.00006 10.5805V14.4694C1.00006 14.8989 1.34828 15.2471 1.77783 15.2471H5.6667C6.09625 15.2471 6.44448 14.8989 6.44448 14.4694V10.5805C6.44448 10.151 6.09625 9.80273 5.6667 9.80273Z" stroke="black" stroke-width="1.55555" stroke-linecap="round" stroke-linejoin="round"/>
</svg>
